<svg xmlns="http://www.w3.org/2000/svg" xmlns:xlink="http://www.w3.org/1999/xlink" width="500" zoomAndPan="magnify" viewBox="0 0 375 374.999991" height="500" preserveAspectRatio="xMidYMid meet" version="1.0"><defs><clipPath id="8b98c42cd6"><path d="M 182 213 L 193 213 L 193 262.5 L 182 262.5 Z M 182 213 " clip-rule="nonzero"/></clipPath><clipPath id="8a91301bab"><path d="M 114.375 188 L 148 188 L 148 241 L 114.375 241 Z M 114.375 188 " clip-rule="nonzero"/></clipPath><clipPath id="1914c4f429"><path d="M 121 257 L 142 257 L 142 262.5 L 121 262.5 Z M 121 257 " clip-rule="nonzero"/></clipPath><clipPath id="ac1e3b54e1"><path d="M 227 188 L 260.625 188 L 260.625 241 L 227 241 Z M 227 188 " clip-rule="nonzero"/></clipPath><clipPath id="4b023e0266"><path d="M 233 257 L 254 257 L 254 262.5 L 233 262.5 Z M 233 257 " clip-rule="nonzero"/></clipPath><clipPath id="098d12a0ba"><path d="M 148 112.5 L 210 112.5 L 210 166 L 148 166 Z M 148 112.5 " clip-rule="nonzero"/></clipPath></defs><rect x="-37.5" width="450" fill="#ffffff" y="-37.499999" height="449.999989" fill-opacity="1"/><rect x="-37.5" width="450" fill="#ffffff" y="-37.499999" height="449.999989" fill-opacity="1"/><path fill="#921717" d="M 158.882812 210.964844 L 216.117188 210.964844 L 216.117188 218.285156 L 158.882812 218.285156 Z M 158.882812 210.964844 " fill-opacity="1" fill-rule="evenodd"/><g clip-path="url(#8b98c42cd6)"><path fill="#921717" d="M 182.480469 213.945312 L 192.519531 213.945312 L 192.519531 262.5 L 182.480469 262.5 Z M 182.480469 213.945312 " fill-opacity="1" fill-rule="evenodd"/></g><path fill="#921717" d="M 146.675781 222.085938 C 146.132812 227.78125 140.980469 231.847656 135.285156 231.035156 C 129.589844 230.492188 125.519531 225.339844 126.332031 219.644531 L 129.859375 190.078125 C 130.402344 184.378906 135.554688 180.3125 141.253906 181.125 C 146.949219 181.667969 151.015625 186.820312 150.203125 192.519531 Z M 146.675781 222.085938 " fill-opacity="1" fill-rule="nonzero"/><path fill="#921717" d="M 143.152344 154.816406 C 149.117188 154.816406 154 159.695312 154 165.664062 C 154 171.632812 149.117188 176.515625 143.152344 176.515625 C 137.183594 176.515625 132.300781 171.632812 132.300781 165.664062 C 132.300781 159.695312 137.183594 154.816406 143.152344 154.816406 Z M 143.152344 154.816406 " fill-opacity="1" fill-rule="evenodd"/><path fill="#921717" d="M 140.710938 190.621094 C 139.082031 188.71875 139.355469 186.007812 140.980469 184.652344 C 142.878906 183.023438 145.59375 183.296875 146.949219 184.921875 L 157.796875 197.402344 L 168.105469 197.402344 C 170.546875 197.402344 172.445312 199.300781 172.445312 201.742188 C 172.445312 204.183594 170.546875 206.082031 168.105469 206.082031 L 155.898438 206.082031 C 154.816406 206.082031 153.457031 205.539062 152.644531 204.722656 L 140.4375 190.890625 Z M 140.710938 190.621094 " fill-opacity="1" fill-rule="nonzero"/><path fill="#921717" d="M 135.554688 231.035156 C 132.84375 230.492188 130.402344 224.796875 130.671875 222.085938 C 131.214844 219.371094 133.929688 217.472656 136.640625 218.015625 C 136.640625 218.015625 164.851562 222.625 177.058594 253.820312 C 178.140625 256.53125 176.785156 259.515625 174.074219 260.328125 C 171.359375 261.414062 168.378906 260.058594 167.5625 257.347656 C 157.796875 231.578125 135.828125 231.035156 135.828125 231.035156 Z M 135.554688 231.035156 " fill-opacity="1" fill-rule="nonzero"/><g clip-path="url(#8a91301bab)"><path fill="#921717" d="M 145.863281 236.730469 C 146.675781 237.003906 147.21875 238.085938 146.949219 238.902344 C 146.675781 239.714844 145.59375 240.257812 144.777344 239.988281 C 144.777344 239.988281 142.066406 239.171875 138.539062 238.359375 C 136.097656 237.816406 133.386719 237.816406 130.945312 237.816406 C 124.433594 237.816406 119.011719 237.816406 117.382812 230.222656 C 117.109375 228.867188 116.839844 227.238281 116.570312 225.339844 C 116.570312 223.710938 116.296875 221.8125 116.296875 219.914062 C 116.296875 217.472656 116.296875 215.304688 116.296875 213.402344 C 116.296875 205.539062 116.296875 199.300781 114.671875 190.078125 C 114.398438 189.261719 115.210938 188.179688 116.027344 188.179688 C 116.839844 187.90625 117.925781 188.71875 117.925781 189.535156 C 119.550781 199.027344 119.550781 205.265625 119.550781 213.402344 C 119.550781 215.574219 119.550781 217.472656 119.550781 219.914062 C 119.550781 221.542969 119.550781 223.441406 119.824219 225.066406 C 119.824219 226.695312 120.09375 228.050781 120.367188 229.40625 C 121.449219 234.289062 125.792969 234.289062 130.671875 234.289062 C 133.386719 234.289062 136.097656 234.289062 138.8125 234.832031 C 142.609375 235.644531 145.320312 236.460938 145.320312 236.460938 Z M 145.863281 236.730469 " fill-opacity="1" fill-rule="nonzero"/></g><path fill="#921717" d="M 129.046875 236.1875 L 133.386719 236.1875 L 133.386719 261.144531 L 129.046875 261.144531 Z M 129.046875 236.1875 " fill-opacity="1" fill-rule="nonzero"/><g clip-path="url(#1914c4f429)"><path fill="#921717" d="M 139.082031 257.890625 C 140.167969 257.890625 141.253906 258.972656 141.253906 260.058594 C 141.253906 261.144531 140.167969 262.230469 139.082031 262.230469 L 123.351562 262.230469 C 122.265625 262.230469 121.179688 261.144531 121.179688 260.058594 C 121.179688 258.972656 122.265625 257.890625 123.351562 257.890625 Z M 139.082031 257.890625 " fill-opacity="1" fill-rule="nonzero"/></g><path fill="#921717" d="M 228.324219 222.085938 C 228.867188 227.78125 234.019531 231.847656 239.714844 231.035156 C 245.410156 230.492188 249.480469 225.339844 248.667969 219.644531 L 245.140625 190.078125 C 244.597656 184.378906 239.445312 180.3125 233.746094 181.125 C 228.050781 181.667969 223.984375 186.820312 224.796875 192.519531 Z M 228.324219 222.085938 " fill-opacity="1" fill-rule="nonzero"/><path fill="#921717" d="M 231.847656 154.816406 C 225.882812 154.816406 221 159.695312 221 165.664062 C 221 171.632812 225.882812 176.515625 231.847656 176.515625 C 237.816406 176.515625 242.699219 171.632812 242.699219 165.664062 C 242.699219 159.695312 237.816406 154.816406 231.847656 154.816406 Z M 231.847656 154.816406 " fill-opacity="1" fill-rule="evenodd"/><path fill="#921717" d="M 234.289062 190.621094 C 235.917969 188.71875 235.644531 186.007812 234.019531 184.652344 C 232.121094 183.023438 229.40625 183.296875 228.050781 184.921875 L 217.203125 197.402344 L 206.894531 197.402344 C 204.453125 197.402344 202.554688 199.300781 202.554688 201.742188 C 202.554688 204.183594 204.453125 206.082031 206.894531 206.082031 L 219.101562 206.082031 C 220.183594 206.082031 221.542969 205.539062 222.355469 204.722656 L 234.5625 190.890625 Z M 234.289062 190.621094 " fill-opacity="1" fill-rule="nonzero"/><path fill="#921717" d="M 239.714844 231.035156 C 242.425781 230.492188 244.867188 224.796875 244.597656 222.085938 C 244.054688 219.371094 241.34375 217.472656 238.628906 218.015625 C 238.628906 218.015625 210.421875 222.625 198.214844 253.820312 C 197.128906 256.53125 198.484375 259.515625 201.199219 260.328125 C 203.910156 261.414062 206.894531 260.058594 207.707031 257.347656 C 217.472656 231.578125 239.445312 231.035156 239.445312 231.035156 Z M 239.714844 231.035156 " fill-opacity="1" fill-rule="nonzero"/><g clip-path="url(#ac1e3b54e1)"><path fill="#921717" d="M 229.136719 236.730469 C 228.324219 237.003906 227.78125 238.085938 228.050781 238.902344 C 228.324219 239.714844 229.40625 240.257812 230.222656 239.988281 C 230.222656 239.988281 232.933594 239.171875 236.460938 238.359375 C 238.902344 237.816406 241.613281 237.816406 244.054688 237.816406 C 250.566406 237.816406 255.988281 237.816406 257.617188 230.222656 C 257.890625 228.867188 258.160156 227.238281 258.429688 225.339844 C 258.429688 223.710938 258.703125 221.8125 258.703125 219.914062 C 258.703125 217.472656 258.703125 215.304688 258.703125 213.402344 C 258.703125 205.539062 258.703125 199.300781 260.328125 190.078125 C 260.601562 189.261719 259.789062 188.179688 258.972656 188.179688 C 258.160156 187.90625 257.074219 188.71875 257.074219 189.535156 C 255.449219 199.027344 255.449219 205.265625 255.449219 213.402344 C 255.449219 215.574219 255.449219 217.472656 255.449219 219.914062 C 255.449219 221.542969 255.449219 223.441406 255.175781 225.066406 C 255.175781 226.695312 254.90625 228.050781 254.632812 229.40625 C 253.546875 234.289062 249.207031 234.289062 244.328125 234.289062 C 241.613281 234.289062 238.902344 234.289062 236.1875 234.832031 C 232.390625 235.644531 229.679688 236.460938 229.679688 236.460938 Z M 229.136719 236.730469 " fill-opacity="1" fill-rule="nonzero"/></g><path fill="#921717" d="M 241.613281 236.1875 L 241.613281 261.144531 L 245.953125 261.144531 L 245.953125 236.1875 Z M 241.613281 236.1875 " fill-opacity="1" fill-rule="nonzero"/><g clip-path="url(#4b023e0266)"><path fill="#921717" d="M 235.917969 257.890625 C 234.832031 257.890625 233.746094 258.972656 233.746094 260.058594 C 233.746094 261.144531 234.832031 262.230469 235.917969 262.230469 L 251.648438 262.230469 C 252.734375 262.230469 253.820312 261.144531 253.820312 260.058594 C 253.820312 258.972656 252.734375 257.890625 251.648438 257.890625 Z M 235.917969 257.890625 " fill-opacity="1" fill-rule="nonzero"/></g><path fill="#921717" d="M 168.648438 162.136719 C 169.460938 162.410156 170.277344 162.410156 170.816406 162.410156 L 194.6875 162.410156 L 207.4375 175.160156 L 207.4375 162.410156 C 213.945312 162.410156 219.371094 156.984375 219.371094 150.476562 L 219.371094 134.472656 C 219.371094 129.589844 216.386719 125.25 212.320312 123.351562 C 212.320312 123.890625 212.320312 124.164062 212.320312 124.707031 L 212.320312 128.503906 C 213.945312 129.859375 215.03125 132.03125 215.03125 134.472656 L 215.03125 150.476562 C 215.03125 154.816406 211.503906 158.339844 207.164062 158.339844 L 202.824219 158.339844 L 202.824219 165.121094 L 196.042969 158.339844 L 172.175781 158.339844 L 168.105469 162.410156 Z M 168.648438 162.136719 " fill-opacity="1" fill-rule="evenodd"/><g clip-path="url(#098d12a0ba)"><path fill="#921717" d="M 160.511719 112.5 L 197.128906 112.5 C 203.640625 112.5 209.0625 117.925781 209.0625 124.433594 L 209.0625 140.4375 C 209.0625 146.949219 203.640625 152.375 197.128906 152.375 L 173.257812 152.375 L 160.511719 165.121094 L 160.511719 152.375 C 154 152.375 148.574219 146.949219 148.574219 140.4375 L 148.574219 124.433594 C 148.574219 117.925781 154 112.5 160.511719 112.5 Z M 164.578125 127.960938 C 167.019531 127.960938 169.191406 130.132812 169.191406 132.574219 C 169.191406 135.011719 167.019531 137.183594 164.578125 137.183594 C 162.136719 137.183594 159.96875 135.011719 159.96875 132.574219 C 159.96875 130.132812 162.136719 127.960938 164.578125 127.960938 Z M 178.957031 127.960938 C 181.398438 127.960938 183.566406 130.132812 183.566406 132.574219 C 183.566406 135.011719 181.398438 137.183594 178.957031 137.183594 C 176.515625 137.183594 174.34375 135.011719 174.34375 132.574219 C 174.34375 130.132812 176.515625 127.960938 178.957031 127.960938 Z M 193.332031 127.960938 C 195.773438 127.960938 197.941406 130.132812 197.941406 132.574219 C 197.941406 135.011719 195.773438 137.183594 193.332031 137.183594 C 190.890625 137.183594 188.71875 135.011719 188.71875 132.574219 C 188.71875 130.132812 190.890625 127.960938 193.332031 127.960938 Z M 193.332031 127.960938 " fill-opacity="1" fill-rule="evenodd"/></g></svg>