<svg xmlns="http://www.w3.org/2000/svg" xmlns:xlink="http://www.w3.org/1999/xlink" width="500" zoomAndPan="magnify" viewBox="0 0 375 374.999991" height="500" preserveAspectRatio="xMidYMid meet" version="1.0"><defs><clipPath id="edf560c288"><path d="M 130.125 211 L 244.875 211 L 244.875 262.5 L 130.125 262.5 Z M 130.125 211 " clip-rule="nonzero"/></clipPath></defs><rect x="-37.5" width="450" fill="#ffffff" y="-37.499999" height="449.999989" fill-opacity="1"/><rect x="-37.5" width="450" fill="#ffffff" y="-37.499999" height="449.999989" fill-opacity="1"/><path fill="#921717" d="M 229.085938 162.410156 C 228.765625 161.257812 227.984375 160.308594 226.882812 159.730469 C 227.125 157.132812 226.769531 153.945312 226.160156 151.324219 C 225.644531 149.164062 224.835938 146.753906 223.597656 144.242188 C 222.285156 141.757812 220.671875 139.113281 218.40625 136.679688 C 216.253906 134.160156 213.480469 131.867188 210.351562 129.84375 C 183.058594 112.53125 145.375 133.011719 148.300781 159.738281 C 147.207031 160.316406 146.433594 161.257812 146.113281 162.402344 C 139.65625 162.519531 134.460938 167.320312 134.460938 173.25 C 134.460938 179.179688 139.65625 183.988281 146.113281 184.105469 C 146.628906 185.972656 148.394531 187.394531 150.605469 187.394531 C 153.21875 187.394531 155.324219 185.460938 155.324219 183.070312 L 155.324219 163.445312 C 155.324219 162.085938 154.601562 160.917969 153.535156 160.128906 C 154.714844 153.371094 158.230469 146.234375 163.152344 141.800781 C 170.378906 134.753906 182.921875 130.683594 196.710938 133.753906 C 202.015625 135.335938 207.238281 137.992188 211.589844 142.25 C 216.433594 146.601562 220.367188 153.125 221.648438 160.128906 C 218.859375 162.199219 219.859375 163.988281 219.859375 183.070312 C 219.859375 184.5625 220.742188 185.8125 221.996094 186.589844 L 221.996094 188.253906 C 221.996094 189.304688 221.699219 190.339844 221.128906 191.230469 C 214.957031 200.847656 214.550781 201.824219 205.234375 204.808594 C 202.300781 205.742188 198.992188 206.148438 195.644531 206.964844 C 192.558594 203.917969 187.121094 205.921875 187.121094 210 C 187.121094 215.148438 195.160156 216.328125 196.71875 211.179688 C 198.976562 210.628906 201.300781 210.304688 203.488281 209.636719 C 215.507812 205.980469 219.441406 203.808594 225.804688 191.664062 C 226.40625 190.515625 226.726562 189.238281 226.726562 187.941406 L 226.726562 186.871094 C 227.914062 186.304688 228.753906 185.316406 229.085938 184.097656 C 235.539062 183.980469 240.722656 179.179688 240.722656 173.25 C 240.722656 167.328125 235.539062 162.53125 229.085938 162.410156 " fill-opacity="1" fill-rule="nonzero"/><g clip-path="url(#edf560c288)"><path fill="#921717" d="M 187.605469 232.566406 C 191.46875 227.148438 194.828125 222.492188 198.121094 217.792969 C 201.980469 212.28125 205.871094 210.5 211.96875 212.558594 C 219.714844 215.171875 227.382812 218.097656 234.886719 221.363281 C 241.324219 224.164062 244.9375 229.175781 244.539062 236.605469 C 244.335938 240.261719 244.539062 243.933594 244.488281 247.597656 C 244.359375 257.691406 239.757812 262.390625 229.757812 262.441406 C 216.847656 262.523438 203.9375 262.472656 191.023438 262.472656 C 176.019531 262.472656 161.007812 262.507812 146.011719 262.449219 C 135.28125 262.398438 130.753906 257.816406 130.695312 247.140625 C 130.675781 243.652344 130.871094 240.152344 130.652344 236.675781 C 130.175781 228.945312 134.160156 223.976562 140.726562 221.136719 C 148.234375 217.894531 155.941406 215.078125 163.703125 212.507812 C 170.320312 210.304688 172.371094 211.289062 176.46875 217.03125 C 179.996094 221.976562 183.550781 226.910156 187.605469 232.566406 " fill-opacity="1" fill-rule="nonzero"/></g><path fill="#921717" d="M 214.957031 168.128906 C 214.25 177.242188 211.375 188.878906 201.820312 197.84375 C 193.726562 205.4375 181.371094 205.625 173.40625 197.847656 C 162.371094 187.066406 158.886719 173.359375 160.597656 158.558594 C 161.488281 150.816406 166.207031 144.71875 174.136719 142.125 C 185.925781 138.265625 197.347656 137.882812 207.722656 146.132812 C 213.785156 150.941406 215.167969 157.542969 214.957031 168.128906 " fill-opacity="1" fill-rule="nonzero"/></svg>