<svg xmlns="http://www.w3.org/2000/svg"
    xmlns:xlink="http://www.w3.org/1999/xlink" width="500" zoomAndPan="magnify" viewBox="0 0 375 374.999991" height="500" preserveAspectRatio="xMidYMid meet" version="1.0">
    <defs>
        <clipPath id="d7426052f4">
            <path d="M 112.5 124 L 262.5 124 L 262.5 257.34375 L 112.5 257.34375 Z M 112.5 124 " clip-rule="nonzero"/>
        </clipPath>
    </defs>
    <rect x="-37.5" width="450" fill="#ffffff" y="-37.499999" height="449.999989" fill-opacity="1"/>
    <rect x="-37.5" width="450" fill="#ffffff" y="-37.499999" height="449.999989" fill-opacity="1"/>
    <g clip-path="url(#d7426052f4)">
        <path fill="#921717" d="M 205.808594 131.902344 C 190.726562 131.898438 175.734375 137.355469 157.53125 148.273438 C 156.773438 148.726562 156.351562 149.527344 156.351562 150.351562 L 156.34375 174.65625 C 154.628906 174.453125 152.882812 174.34375 151.109375 174.34375 C 150.445312 174.34375 149.78125 174.359375 149.121094 174.390625 L 149.121094 144.957031 C 192.089844 117.890625 219.527344 117.890625 262.5 144.957031 L 262.5 190.402344 C 262.5 207.230469 255.078125 221.707031 241.414062 231.527344 L 205.808594 257.113281 L 186.414062 243.175781 C 187.824219 241.21875 189.074219 239.136719 190.148438 236.953125 L 204.394531 247.191406 C 205.277344 247.828125 206.441406 247.78125 207.265625 247.160156 L 237.195312 225.652344 C 248.953125 217.199219 255.277344 204.886719 255.277344 190.402344 L 255.277344 150.351562 C 255.277344 149.394531 254.722656 148.566406 253.917969 148.171875 C 235.800781 137.328125 220.859375 131.910156 205.808594 131.902344 Z M 151.113281 179.203125 C 129.785156 179.203125 112.5 196.488281 112.5 217.8125 C 112.5 239.136719 129.785156 256.425781 151.113281 256.425781 C 172.4375 256.425781 189.722656 239.136719 189.722656 217.8125 C 189.722656 196.488281 172.4375 179.203125 151.113281 179.203125 Z M 139.90625 237.5625 C 139.90625 238.449219 139.179688 239.171875 138.296875 239.171875 L 132.0625 239.171875 C 131.179688 239.171875 130.453125 238.449219 130.453125 237.5625 L 130.453125 209.460938 C 130.453125 208.578125 131.179688 207.851562 132.0625 207.851562 L 138.296875 207.851562 C 139.179688 207.851562 139.90625 208.578125 139.90625 209.460938 Z M 175.847656 220.988281 L 169.261719 230.917969 C 165.003906 237.339844 163 239.234375 158.832031 239.171875 L 148.210938 239.171875 C 147.253906 239.171875 146.417969 238.890625 145.675781 238.234375 C 145.675781 228.484375 145.675781 218.933594 145.675781 209.382812 C 152.199219 198.050781 157.574219 189.082031 157.574219 189.082031 C 159.75 186.550781 164.121094 188.898438 164.089844 194.054688 C 163.480469 196.324219 161.566406 203.726562 160.144531 209.265625 L 168.550781 209.199219 C 174.820312 209.148438 179.5 215.484375 175.847656 220.988281 Z M 215.445312 174.28125 L 199.808594 189.914062 L 194.136719 182.773438 C 192.738281 181.019531 190.183594 180.726562 188.429688 182.121094 C 186.671875 183.519531 186.378906 186.074219 187.777344 187.828125 L 196.128906 198.339844 C 197.570312 200.40625 200.546875 200.691406 202.34375 198.890625 L 221.199219 180.035156 C 222.789062 178.445312 222.789062 175.871094 221.199219 174.28125 C 219.609375 172.691406 217.035156 172.691406 215.445312 174.28125 Z M 205.808594 136.753906 C 191.992188 136.757812 178.085938 141.746094 161.203125 151.722656 L 161.203125 175.523438 C 167.363281 176.988281 173.019531 179.765625 177.851562 183.542969 C 179.140625 169.230469 191.164062 158.015625 205.808594 158.015625 C 221.3125 158.015625 233.882812 170.582031 233.882812 186.089844 C 233.882812 201.59375 221.3125 214.160156 205.808594 214.160156 C 201.644531 214.160156 197.695312 213.253906 194.140625 211.625 C 194.429688 213.648438 194.582031 215.710938 194.582031 217.8125 C 194.582031 222.921875 193.695312 227.824219 192.078125 232.378906 L 205.808594 242.246094 L 234.367188 221.722656 C 244.882812 214.164062 250.417969 203.351562 250.417969 190.402344 L 250.417969 151.722656 C 233.523438 141.742188 219.617188 136.746094 205.808594 136.753906 Z M 205.808594 136.753906 " fill-opacity="1" fill-rule="evenodd"/>
    </g>
</svg>